#N canvas 569 378 862 521 10;
#X obj 56 169 inlet;
#X obj 115 184 inlet;
#X obj 174 184 inlet;
#X obj 224 185 inlet;
#X obj 277 186 inlet;
#X obj 56 206 nK2-pre-in;
#X msg 128 133 1;
#X msg 171 132 2;
#X msg 215 144 3;
#X msg 257 152 4;
#X msg 313 148 5;
#X obj 156 64 loadbang;
#X obj 115 206 nK2-pre-in;
#X obj 174 206 nK2-pre-in;
#X obj 224 207 nK2-pre-in;
#X obj 277 208 nK2-pre-in;
#X obj 83 259 outlet;
#X text 43 28 permet d'empaqueter les sorties d'un groupe de boutons
du contrôleur;
#X connect 0 0 5 0;
#X connect 1 0 12 0;
#X connect 2 0 13 0;
#X connect 3 0 14 0;
#X connect 4 0 15 0;
#X connect 5 0 16 0;
#X connect 6 0 5 1;
#X connect 7 0 12 1;
#X connect 8 0 13 1;
#X connect 9 0 14 1;
#X connect 10 0 15 1;
#X connect 11 0 6 0;
#X connect 11 0 7 0;
#X connect 11 0 8 0;
#X connect 11 0 9 0;
#X connect 11 0 10 0;
#X connect 12 0 16 0;
#X connect 13 0 16 0;
#X connect 14 0 16 0;
#X connect 15 0 16 0;
