#N canvas 20 139 1094 726 10;
#N canvas 1 81 1219 818 nK2 0;
#X floatatom 34 127 5 0 0 0 - - -, f 5;
#X floatatom 112 89 5 0 0 0 - - -, f 5;
#X floatatom 72 107 5 0 0 0 - - -, f 5;
#X obj 55 63 ctlin;
#X obj 34 152 pack f f;
#X text 115 108 bouton/potentiomètre;
#X text 78 128 valeur;
#X obj 35 603 send nK2-slider-1;
#X obj 52 586 send nK2-slider-2;
#X obj 70 569 send nK2-slider-3;
#X obj 88 552 send nK2-slider-4;
#X obj 105 535 send nK2-slider-5;
#X obj 123 518 send nK2-slider-6;
#X obj 141 501 send nK2-slider-7;
#X obj 158 484 send nK2-slider-8;
#X obj 176 603 send nK2-potentio-1;
#X obj 194 586 send nK2-potentio-2;
#X obj 212 569 send nK2-potentio-3;
#X obj 229 552 send nK2-potentio-4;
#X obj 247 535 send nK2-potentio-5;
#X obj 265 518 send nK2-potentio-6;
#X obj 282 501 send nK2-potentio-7;
#X obj 300 484 send nK2-potentio-8;
#X obj 318 603 send nK2-S-1;
#X obj 336 586 send nK2-S-2;
#X obj 353 569 send nK2-S-3;
#X obj 371 552 send nK2-S-4;
#X obj 389 535 send nK2-S-5;
#X obj 406 518 send nK2-S-6;
#X obj 424 501 send nK2-S-7;
#X obj 442 484 send nK2-S-8;
#X text 88 166 sliders = 0 à 7 \, potentios = 16 à 23;
#X text 333 166 S = 32 à 39 \, R = 48 à 55;
#X obj 459 603 send nK2-M-1;
#X obj 477 586 send nK2-M-2;
#X obj 495 569 send nK2-M-3;
#X obj 513 552 send nK2-M-4;
#X obj 530 535 send nK2-M-5;
#X obj 548 518 send nK2-M-6;
#X obj 566 501 send nK2-M-7;
#X obj 583 484 send nK2-M-8;
#X obj 601 603 send nK2-R-1;
#X obj 619 586 send nK2-R-2;
#X obj 637 569 send nK2-R-3;
#X obj 654 552 send nK2-R-4;
#X obj 672 535 send nK2-R-5;
#X obj 690 518 send nK2-R-6;
#X obj 707 501 send nK2-R-7;
#X obj 725 484 send nK2-R-8;
#X obj 35 197 route 0 1 2 3 4 5 6 7 16 17 18 19 20 21 22 23 32 33 34
35 36 37 38 39 48 49 50 51 52 53 54 55 64 65 66 67 68 69 70 71 58 59
46 60 61 62 43 44 42 41 45, f 151;
#X obj 743 598 send nK2-track-previous;
#X obj 760 581 send nK2-track-next;
#X obj 778 564 send nK2-cycle;
#X obj 796 547 send nK2-marker-set;
#X obj 814 530 send nK2-marker-previous;
#X obj 831 513 send nK2-marker-next;
#X obj 849 485 send nK2-backward;
#X obj 867 468 send nK2-forward;
#X obj 884 451 send nK2-stop;
#X obj 902 434 send nK2-play;
#X obj 920 417 send nK2-record;
#X obj 45 723 r nK2-slider-1;
#X obj 34 703 r nK2-potentio-1;
#X obj 56 743 r nK2-S-1;
#X obj 67 763 r nK2-M-1;
#X obj 79 783 r nK2-R-1;
#X obj 34 853 s u1;
#X obj 153 853 s u2;
#X obj 153 703 r nK2-potentio-2;
#X obj 164 723 r nK2-slider-2;
#X obj 175 743 r nK2-S-2;
#X obj 186 763 r nK2-M-2;
#X obj 198 783 r nK2-R-2;
#X obj 393 827 nK2-multi-in;
#X obj 271 703 r nK2-potentio-3;
#X obj 282 723 r nK2-slider-3;
#X obj 293 743 r nK2-S-3;
#X obj 304 763 r nK2-M-3;
#X obj 316 783 r nK2-R-3;
#X obj 271 853 s u3;
#X obj 393 703 r nK2-potentio-4;
#X obj 404 723 r nK2-slider-4;
#X obj 415 743 r nK2-S-4;
#X obj 426 763 r nK2-M-4;
#X obj 438 783 r nK2-R-4;
#X obj 393 853 s u4;
#X obj 520 703 r nK2-potentio-5;
#X obj 531 723 r nK2-slider-5;
#X obj 542 743 r nK2-S-5;
#X obj 553 763 r nK2-M-5;
#X obj 565 783 r nK2-R-5;
#X obj 631 707 r nK2-potentio-6;
#X obj 642 727 r nK2-slider-6;
#X obj 653 747 r nK2-S-6;
#X obj 664 767 r nK2-M-6;
#X obj 676 787 r nK2-R-6;
#X obj 520 853 s u5;
#X obj 631 857 s u6;
#X obj 741 703 r nK2-potentio-7;
#X obj 752 723 r nK2-slider-7;
#X obj 763 743 r nK2-S-7;
#X obj 774 763 r nK2-M-7;
#X obj 786 783 r nK2-R-7;
#X obj 741 853 s u7;
#X obj 851 706 r nK2-potentio-8;
#X obj 862 726 r nK2-slider-8;
#X obj 873 746 r nK2-S-8;
#X obj 884 766 r nK2-M-8;
#X obj 896 786 r nK2-R-8;
#X obj 851 856 s u8;
#X text 33 26 distribution des sorties du contrôleur;
#X obj 34 827 nK2-multi-in;
#X obj 153 827 nK2-multi-in;
#X obj 271 827 nK2-multi-in;
#X obj 520 827 nK2-multi-in;
#X obj 631 831 nK2-multi-in;
#X obj 741 827 nK2-multi-in;
#X obj 851 830 nK2-multi-in;
#X text 60 663 regroupement des boutons formant un groupe;
#X connect 0 0 4 1;
#X connect 2 0 4 0;
#X connect 3 0 0 0;
#X connect 3 1 2 0;
#X connect 3 2 1 0;
#X connect 4 0 49 0;
#X connect 49 0 7 0;
#X connect 49 1 8 0;
#X connect 49 2 9 0;
#X connect 49 3 10 0;
#X connect 49 4 11 0;
#X connect 49 5 12 0;
#X connect 49 6 13 0;
#X connect 49 7 14 0;
#X connect 49 8 15 0;
#X connect 49 9 16 0;
#X connect 49 10 17 0;
#X connect 49 11 18 0;
#X connect 49 12 19 0;
#X connect 49 13 20 0;
#X connect 49 14 21 0;
#X connect 49 15 22 0;
#X connect 49 16 23 0;
#X connect 49 17 24 0;
#X connect 49 18 25 0;
#X connect 49 19 26 0;
#X connect 49 20 27 0;
#X connect 49 21 28 0;
#X connect 49 22 29 0;
#X connect 49 23 30 0;
#X connect 49 24 33 0;
#X connect 49 25 34 0;
#X connect 49 26 35 0;
#X connect 49 27 36 0;
#X connect 49 28 37 0;
#X connect 49 29 38 0;
#X connect 49 30 39 0;
#X connect 49 31 40 0;
#X connect 49 32 41 0;
#X connect 49 33 42 0;
#X connect 49 34 43 0;
#X connect 49 35 44 0;
#X connect 49 36 45 0;
#X connect 49 37 46 0;
#X connect 49 38 47 0;
#X connect 49 39 48 0;
#X connect 49 40 50 0;
#X connect 49 41 51 0;
#X connect 49 42 52 0;
#X connect 49 43 53 0;
#X connect 49 44 54 0;
#X connect 49 45 55 0;
#X connect 49 46 56 0;
#X connect 49 47 57 0;
#X connect 49 48 58 0;
#X connect 49 49 59 0;
#X connect 49 50 60 0;
#X connect 61 0 111 1;
#X connect 62 0 111 0;
#X connect 63 0 111 2;
#X connect 64 0 111 3;
#X connect 65 0 111 4;
#X connect 68 0 112 0;
#X connect 69 0 112 1;
#X connect 70 0 112 2;
#X connect 71 0 112 3;
#X connect 72 0 112 4;
#X connect 73 0 85 0;
#X connect 74 0 113 0;
#X connect 75 0 113 1;
#X connect 76 0 113 2;
#X connect 77 0 113 3;
#X connect 78 0 113 4;
#X connect 80 0 73 0;
#X connect 81 0 73 1;
#X connect 82 0 73 2;
#X connect 83 0 73 3;
#X connect 84 0 73 4;
#X connect 86 0 114 0;
#X connect 87 0 114 1;
#X connect 88 0 114 2;
#X connect 89 0 114 3;
#X connect 90 0 114 4;
#X connect 91 0 115 0;
#X connect 92 0 115 1;
#X connect 93 0 115 2;
#X connect 94 0 115 3;
#X connect 95 0 115 4;
#X connect 98 0 116 0;
#X connect 99 0 116 1;
#X connect 100 0 116 2;
#X connect 101 0 116 3;
#X connect 102 0 116 4;
#X connect 104 0 117 0;
#X connect 105 0 117 1;
#X connect 106 0 117 2;
#X connect 107 0 117 3;
#X connect 108 0 117 4;
#X connect 111 0 66 0;
#X connect 112 0 67 0;
#X connect 113 0 79 0;
#X connect 114 0 96 0;
#X connect 115 0 97 0;
#X connect 116 0 103 0;
#X connect 117 0 109 0;
#X restore 30 47 pd nK2;
#X obj 299 206 r u1;
#X obj 355 206 r u2;
#X obj 411 206 r u3;
#X obj 467 206 r u4;
#X obj 523 206 r u5;
#X obj 579 206 r u6;
#X obj 635 206 r u7;
#X obj 691 206 r u8;
#X obj 299 223 nK2-unit;
#X obj 355 223 nK2-unit;
#X obj 467 223 nK2-unit;
#X obj 411 223 nK2-unit;
#X obj 579 223 nK2-unit;
#X obj 523 223 nK2-unit;
#X obj 691 223 nK2-unit;
#X obj 635 223 nK2-unit;
#N canvas 838 238 450 359 track 0;
#X obj 76 155 outlet;
#X obj 195 158 outlet;
#X obj 88 81 nK2-bouton;
#X obj 234 82 nK2-bouton;
#X obj 46 36 r nK2-track-previous;
#X obj 182 44 r nK2-track-next;
#X text 71 14 regroupement de données en entrée;
#X connect 2 0 0 0;
#X connect 3 0 1 0;
#X connect 4 0 2 0;
#X connect 5 0 3 0;
#X restore 99 128 pd track;
#N canvas 737 552 450 300 marker 0;
#X obj 76 155 outlet;
#X obj 157 160 outlet;
#X obj 212 158 outlet;
#X obj 88 81 nK2-bouton;
#X obj 196 84 nK2-bouton;
#X obj 264 72 nK2-bouton;
#X obj 237 25 r nK2-marker-next;
#X obj 144 46 r nK2-marker-previous;
#X obj 46 36 r nK2-marker-set;
#X text 39 7 regroupement de données en entrée;
#X connect 3 0 0 0;
#X connect 4 0 1 0;
#X connect 5 0 2 0;
#X connect 6 0 5 0;
#X connect 7 0 4 0;
#X connect 8 0 3 0;
#X restore 196 219 pd marker;
#N canvas 87 364 450 410 play 0;
#X obj 76 155 outlet;
#X obj 157 160 outlet;
#X obj 212 158 outlet;
#X obj 276 161 outlet;
#X obj 339 159 outlet;
#X obj 88 81 nK2-bouton;
#X obj 196 84 nK2-bouton;
#X obj 264 72 nK2-bouton;
#X obj 315 80 nK2-bouton;
#X obj 371 96 nK2-bouton;
#X obj 343 35 r nK2-record;
#X obj 312 12 r nK2-play;
#X obj 237 25 r nK2-stop;
#X obj 144 46 r nK2-forward;
#X obj 46 36 r nK2-backward;
#X text 22 12 regroupement de données en entrée;
#X connect 5 0 0 0;
#X connect 6 0 1 0;
#X connect 7 0 2 0;
#X connect 8 0 3 0;
#X connect 9 0 4 0;
#X connect 10 0 9 0;
#X connect 11 0 8 0;
#X connect 12 0 7 0;
#X connect 13 0 6 0;
#X connect 14 0 5 0;
#X restore 165 291 pd play;
#X obj 104 308 tgl 30 0 empty empty empty 17 7 0 10 -262144 -1 -1 0
1;
#X obj 137 308 tgl 30 0 empty empty empty 17 7 0 10 -262144 -1 -1 0
1;
#X obj 170 308 tgl 30 0 empty empty empty 17 7 0 10 -262144 -1 -1 0
1;
#X obj 203 308 tgl 30 0 empty empty empty 17 7 0 10 -262144 -1 -1 0
1;
#X obj 236 308 tgl 30 0 empty empty empty 17 7 0 10 -262144 -1 -1 0
1;
#X text 144 316 >>;
#X text 112 315 <<;
#X text 171 316 stop;
#X text 213 317 >;
#X text 245 316 o;
#X obj 178 236 tgl 30 0 empty empty empty 17 7 0 10 -262144 -1 -1 0
1;
#X obj 211 236 tgl 30 0 empty empty empty 17 7 0 10 -262144 -1 -1 0
1;
#X obj 244 236 tgl 30 0 empty empty empty 17 7 0 10 -262144 -1 -1 0
1;
#X text 183 243 set;
#X text 218 244 <;
#X text 252 244 >;
#X obj 100 161 tgl 30 0 empty empty empty 17 7 0 10 -262144 -1 -1 0
1;
#X obj 133 161 tgl 30 0 empty empty empty 17 7 0 10 -262144 -1 -1 0
1;
#X text 107 169 <;
#X text 141 169 >;
#N canvas 575 408 450 300 cycle 0;
#X obj 71 119 nK2-bouton;
#X obj 71 147 outlet;
#X obj 71 89 r nK2-cycle;
#X text 68 57 regroupement de données en entrée;
#X connect 0 0 1 0;
#X connect 2 0 0 0;
#X restore 95 223 pd cycle;
#X obj 95 240 tgl 30 0 empty empty empty 17 7 0 10 -262144 -1 -1 0
1;
#X text 91 248 cycle;
#X text 30 15 Patch représentant un Korg NanoKontrol2;
#X text 82 48 récupération du signal de sortie et organisation;
#X connect 1 0 9 0;
#X connect 2 0 10 0;
#X connect 3 0 12 0;
#X connect 4 0 11 0;
#X connect 5 0 14 0;
#X connect 6 0 13 0;
#X connect 7 0 16 0;
#X connect 8 0 15 0;
#X connect 17 0 36 0;
#X connect 17 1 37 0;
#X connect 18 0 30 0;
#X connect 18 1 31 0;
#X connect 18 2 32 0;
#X connect 19 0 20 0;
#X connect 19 1 21 0;
#X connect 19 2 22 0;
#X connect 19 3 23 0;
#X connect 19 4 24 0;
#X connect 40 0 41 0;
